<svg width="205" height="65" viewBox="0 0 205 65" fill="none" xmlns="http://www.w3.org/2000/svg">
<path d="M11.2383 26.7266L13.4297 28.918L11.2383 31.0977L9.05859 28.918L11.2383 26.7266ZM11.3906 39.5938C12.4844 39.5938 13.3516 39.418 13.9922 39.0664C14.6328 38.7227 15.0898 38.25 15.3633 37.6484C15.6367 37.0391 15.7734 36.3438 15.7734 35.5625C15.7734 34.7344 15.6367 33.875 15.3633 32.9844C15.0898 32.0938 14.7734 31.2188 14.4141 30.3594L17.7539 29.1172C18.2148 30.3203 18.5352 31.4219 18.7148 32.4219C18.8945 33.4141 18.9844 34.4375 18.9844 35.4922C18.9844 37.0859 18.6914 38.457 18.1055 39.6055C17.5195 40.7539 16.6602 41.6367 15.5273 42.2539C14.4023 42.8711 13.0234 43.1797 11.3906 43.1797C9.71094 43.1797 8.31641 42.8555 7.20703 42.207C6.10547 41.5586 5.28516 40.6719 4.74609 39.5469C4.20703 38.4297 3.9375 37.1562 3.9375 35.7266C3.9375 34.7734 4.04297 33.7891 4.25391 32.7734C4.46484 31.75 4.76953 30.7305 5.16797 29.7148L8.20312 30.875C7.90625 31.7188 7.65625 32.5391 7.45312 33.3359C7.25 34.1328 7.14844 34.8711 7.14844 35.5508C7.14844 36.2852 7.27734 36.9609 7.53516 37.5781C7.79297 38.1875 8.23047 38.6758 8.84766 39.043C9.46484 39.4102 10.3125 39.5938 11.3906 39.5938ZM24.8789 21.5117V37.9883H21.4922V21.5117H24.8789ZM30 24.0312L32.1914 26.2227L30 28.4023L27.8203 26.2227L30 24.0312ZM25.3594 44.4102L24.0703 41.0352C25.1719 40.793 26.1367 40.4883 26.9648 40.1211C27.8008 39.7539 28.4492 39.2422 28.9102 38.5859C29.3711 37.9375 29.6016 37.0703 29.6016 35.9844C29.6016 35.2656 29.4805 34.4492 29.2383 33.5352C29.0039 32.6133 28.7578 31.7695 28.5 31.0039L31.8867 29.9023C32.1992 30.7773 32.4375 31.7266 32.6016 32.75C32.7656 33.7656 32.8477 34.7422 32.8477 35.6797C32.8477 37.3828 32.5312 38.8281 31.8984 40.0156C31.2656 41.2109 30.3867 42.168 29.2617 42.8867C28.1367 43.6055 26.8359 44.1133 25.3594 44.4102ZM35.2852 21.5117H38.6719V32.1289C38.6719 32.9102 38.7734 33.4805 38.9766 33.8398C39.1875 34.1914 39.668 34.3672 40.418 34.3672H40.7109V38H40.418C38.6211 38 37.3164 37.5391 36.5039 36.6172C35.6914 35.6875 35.2852 34.3047 35.2852 32.4688V21.5117ZM48.4102 38C47.6367 38 46.9766 37.8711 46.4297 37.6133C45.8906 37.3477 45.4453 37.0039 45.0938 36.582C44.6484 37.0117 44.1289 37.3555 43.5352 37.6133C42.9414 37.8711 42.2031 38 41.3203 38H40.2422V34.3672H41.3438C41.8984 34.3672 42.3398 34.3359 42.668 34.2734C43.0039 34.2031 43.2461 34.0508 43.3945 33.8164C43.5508 33.5742 43.6289 33.1953 43.6289 32.6797C43.6289 32.5625 43.6211 32.3477 43.6055 32.0352C43.5898 31.7148 43.5664 31.3711 43.5352 31.0039C43.5117 30.6289 43.4883 30.3047 43.4648 30.0312L46.5938 29.6445L46.8516 32.9492C46.8906 33.4414 47.0352 33.8008 47.2852 34.0273C47.543 34.2539 47.9258 34.3672 48.4336 34.3672C49.0508 34.3672 49.4609 34.25 49.6641 34.0156C49.8672 33.7812 49.9688 33.3359 49.9688 32.6797C49.9688 32.5703 49.9609 32.3594 49.9453 32.0469C49.9297 31.7266 49.9062 31.3789 49.875 31.0039C49.8516 30.6289 49.8281 30.3047 49.8047 30.0312L52.9336 29.6445L53.1914 32.9492C53.2227 33.4023 53.332 33.7539 53.5195 34.0039C53.7148 34.2461 54.0469 34.3672 54.5156 34.3672C54.8047 34.3672 55.0312 34.2891 55.1953 34.1328C55.3594 33.9688 55.4766 33.7539 55.5469 33.4883C55.6172 33.2148 55.6523 32.9141 55.6523 32.5859C55.6523 32.1328 55.6094 31.6641 55.5234 31.1797C55.4375 30.6875 55.3438 30.2461 55.2422 29.8555C55.1406 29.457 55.0664 29.1758 55.0195 29.0117L58.2422 28.1328C58.4062 28.7734 58.5391 29.4531 58.6406 30.1719C58.75 30.8828 58.8047 31.5938 58.8047 32.3047C58.8047 33.2969 58.6719 34.2266 58.4062 35.0938C58.1484 35.9609 57.7109 36.6641 57.0938 37.2031C56.4766 37.7344 55.625 38 54.5391 38C53.8438 38 53.2539 37.8594 52.7695 37.5781C52.2852 37.2891 51.875 36.9492 51.5391 36.5586C51.1484 36.9414 50.7031 37.2773 50.2031 37.5664C49.7031 37.8555 49.1055 38 48.4102 38ZM78.375 38C77.6484 38 77.0039 37.9141 76.4414 37.7422C75.8789 37.5703 75.4023 37.293 75.0117 36.9102C74.6211 36.5273 74.3125 36.0195 74.0859 35.3867C73.625 35.7305 73.1602 35.9805 72.6914 36.1367C72.2227 36.293 71.7266 36.3711 71.2031 36.3711C69.8672 36.3711 68.7578 36.0078 67.875 35.2812C66.9922 34.5469 66.5508 33.4609 66.5508 32.0234C66.5508 31.2344 66.7305 30.5352 67.0898 29.9258C67.4492 29.3164 67.9219 28.7852 68.5078 28.332C69.1016 27.8711 69.75 27.4805 70.4531 27.1602C71.1641 26.8398 71.8711 26.5742 72.5742 26.3633L72.4922 25.8008L75.5156 25.1797L76.6523 32.7734C76.7148 33.2031 76.8906 33.5781 77.1797 33.8984C77.4688 34.2109 77.8828 34.3672 78.4219 34.3672H78.7734V38H78.375ZM73.418 31.625C73.418 31.5156 73.4062 31.3906 73.3828 31.25C73.3672 31.1094 73.3438 30.9648 73.3125 30.8164L73.125 29.7266C72.7734 29.8438 72.4062 29.9805 72.0234 30.1367C71.6406 30.2852 71.2812 30.457 70.9453 30.6523C70.6172 30.8398 70.3477 31.043 70.1367 31.2617C69.9258 31.4805 69.8203 31.707 69.8203 31.9414C69.8203 32.2305 69.9414 32.4688 70.1836 32.6562C70.4336 32.8359 70.75 32.9258 71.1328 32.9258C71.4766 32.9258 71.8242 32.8828 72.1758 32.7969C72.5273 32.7031 72.8203 32.5586 73.0547 32.3633C73.2969 32.168 73.418 31.9219 73.418 31.625ZM78.8203 38H78.3047L78.3164 34.3672H78.7617C79.1211 34.3672 79.4453 34.2188 79.7344 33.9219C80.0312 33.625 80.3242 33.2422 80.6133 32.7734C80.9023 32.2969 81.207 31.7969 81.5273 31.2734C81.8555 30.75 82.2188 30.2539 82.6172 29.7852C83.0234 29.3086 83.4922 28.9219 84.0234 28.625C84.5547 28.3281 85.1719 28.1797 85.875 28.1797C86.7734 28.1797 87.5586 28.3672 88.2305 28.7422C88.9023 29.1172 89.4492 29.6211 89.8711 30.2539C90.293 30.8867 90.5664 31.5938 90.6914 32.375C90.7773 32.8984 90.8984 33.3047 91.0547 33.5938C91.2188 33.8828 91.4023 34.0859 91.6055 34.2031C91.8086 34.3125 92.0156 34.3672 92.2266 34.3672H92.5312V38H92.2148C91.7148 38 91.2188 37.8828 90.7266 37.6484C90.2422 37.4141 89.8555 37.1523 89.5664 36.8633C89.1602 37.3633 88.7188 37.7227 88.2422 37.9414C87.7656 38.1602 87.2031 38.2695 86.5547 38.2695C86.0078 38.2695 85.4844 38.1875 84.9844 38.0234C84.4922 37.8672 84.0117 37.6562 83.543 37.3906C83.082 37.1172 82.6289 36.8203 82.1836 36.5C81.9102 36.7656 81.6289 37.0117 81.3398 37.2383C81.0508 37.4648 80.707 37.6484 80.3086 37.7891C79.918 37.9297 79.4219 38 78.8203 38ZM85.9922 31.625C85.6797 31.625 85.3984 31.7305 85.1484 31.9414C84.9062 32.1445 84.6953 32.3867 84.5156 32.668C84.3359 32.9492 84.1875 33.2109 84.0703 33.4531C84.3047 33.6641 84.5273 33.8438 84.7383 33.9922C84.9492 34.1406 85.1484 34.2617 85.3359 34.3555C85.5859 34.4805 85.8164 34.5703 86.0273 34.625C86.2383 34.6719 86.4219 34.6953 86.5781 34.6953C86.9609 34.6953 87.2305 34.5469 87.3867 34.25C87.543 33.9531 87.6211 33.6289 87.6211 33.2773C87.6211 32.8398 87.4766 32.457 87.1875 32.1289C86.8984 31.793 86.5 31.625 85.9922 31.625ZM102.738 21.0078L104.684 22.9531L102.738 24.8984L100.793 22.9531L102.738 21.0078ZM104.801 24.0078L106.746 25.9531L104.801 27.8984L102.855 25.9531L104.801 24.0078ZM100.688 24.0078L102.633 25.9531L100.688 27.8984L98.7422 25.9531L100.688 24.0078ZM106.359 38C105.672 38 105.082 37.8594 104.59 37.5781C104.105 37.2891 103.695 36.9492 103.359 36.5586C102.969 36.9414 102.523 37.2773 102.023 37.5664C101.523 37.8555 100.926 38 100.23 38C99.457 38 98.7969 37.8711 98.25 37.6133C97.7109 37.3477 97.2656 37.0039 96.9141 36.582C96.4688 37.0117 95.9492 37.3555 95.3555 37.6133C94.7617 37.8711 94.0234 38 93.1406 38H92.0625V34.3672H93.1641C93.7188 34.3672 94.1602 34.3359 94.4883 34.2734C94.8242 34.2031 95.0664 34.0508 95.2148 33.8164C95.3711 33.5742 95.4492 33.1953 95.4492 32.6797C95.4492 32.5625 95.4414 32.3477 95.4258 32.0352C95.4102 31.7148 95.3867 31.3711 95.3555 31.0039C95.332 30.6289 95.3086 30.3047 95.2852 30.0312L98.4141 29.6445L98.6719 32.9492C98.7109 33.4414 98.8555 33.8008 99.1055 34.0273C99.3633 34.2539 99.7461 34.3672 100.254 34.3672C100.871 34.3672 101.281 34.25 101.484 34.0156C101.688 33.7812 101.789 33.3359 101.789 32.6797C101.789 32.5703 101.781 32.3594 101.766 32.0469C101.75 31.7266 101.727 31.3789 101.695 31.0039C101.672 30.6289 101.648 30.3047 101.625 30.0312L104.754 29.6445L105.012 32.9492C105.043 33.4023 105.156 33.7539 105.352 34.0039C105.547 34.2461 105.875 34.3672 106.336 34.3672C106.641 34.3672 106.875 34.3008 107.039 34.168C107.211 34.0352 107.328 33.8438 107.391 33.5938C107.461 33.3359 107.496 33.0312 107.496 32.6797C107.496 32.3984 107.477 31.9688 107.438 31.3906C107.406 30.8125 107.371 30.2852 107.332 29.8086L110.461 29.4219L110.719 32.9492C110.758 33.4961 110.91 33.8711 111.176 34.0742C111.441 34.2695 111.863 34.3672 112.441 34.3672H112.793V38H112.465C111.762 38 111.133 37.8789 110.578 37.6367C110.031 37.3945 109.586 37.0781 109.242 36.6875C108.93 37.0469 108.531 37.3555 108.047 37.6133C107.57 37.8711 107.008 38 106.359 38ZM120.375 42.1016L122.32 44.0469L120.375 45.9922L118.43 44.0469L120.375 42.1016ZM122.438 39.1016L124.383 41.0469L122.438 42.9922L120.492 41.0469L122.438 39.1016ZM118.324 39.1016L120.27 41.0469L118.324 42.9922L116.379 41.0469L118.324 39.1016ZM112.336 34.3672H114.328C115.055 34.3672 115.742 34.3203 116.391 34.2266C117.039 34.125 117.688 33.9766 118.336 33.7812C118.984 33.5781 119.664 33.3242 120.375 33.0195C121.094 32.707 121.879 32.3398 122.73 31.918C122.121 31.6914 121.586 31.4883 121.125 31.3086C120.664 31.1289 120.262 30.9766 119.918 30.8516C119.582 30.7266 119.301 30.6289 119.074 30.5586C118.848 30.4883 118.668 30.4531 118.535 30.4531C118.121 30.4531 117.746 30.5859 117.41 30.8516C117.074 31.1094 116.805 31.3711 116.602 31.6367L115.922 32.4922L113.145 31.1328L113.73 30.1719C114.285 29.2578 114.961 28.4922 115.758 27.875C116.555 27.2578 117.484 26.9492 118.547 26.9492C118.992 26.9492 119.508 27.0508 120.094 27.2539C120.68 27.457 121.312 27.7109 121.992 28.0156C122.672 28.3203 123.367 28.625 124.078 28.9297C124.797 29.2344 125.508 29.4922 126.211 29.7031C126.914 29.9062 127.586 30.0117 128.227 30.0195V33.3242C127.586 33.4102 127.008 33.5508 126.492 33.7461C125.977 33.9336 125.449 34.1719 124.91 34.4609C124.371 34.7422 123.75 35.0703 123.047 35.4453C122.047 35.9766 121.098 36.4336 120.199 36.8164C119.309 37.1992 118.391 37.4922 117.445 37.6953C116.508 37.8984 115.457 38 114.293 38H112.336V34.3672Z" fill="#DE4A28"/>
<rect x="140" width="65" height="65" rx="16" fill="#DE4A28"/>
<path d="M187.703 20.9141L187.68 27.3828C185.836 27.5391 183.859 27.8281 181.75 28.25C179.656 28.6719 177.602 29.2344 175.586 29.9375C173.57 30.6406 171.734 31.5 170.078 32.5156C168.422 33.5156 167.102 34.6719 166.117 35.9844C165.133 37.2969 164.641 38.7812 164.641 40.4375C164.641 41.8906 165.086 43.1172 165.977 44.1172C166.883 45.1172 168.086 45.8672 169.586 46.3672C171.086 46.8828 172.734 47.1406 174.531 47.1406C176.812 47.1406 178.969 46.9219 181 46.4844C183.031 46.0625 184.836 45.5547 186.414 44.9609L188.477 51.7578C186.289 52.6172 184.031 53.2344 181.703 53.6094C179.391 54 177.125 54.1953 174.906 54.1953C172.625 54.1953 170.484 53.9453 168.484 53.4453C166.484 52.9453 164.719 52.1484 163.188 51.0547C161.672 49.9766 160.477 48.5703 159.602 46.8359C158.742 45.1172 158.312 43.0312 158.312 40.5781C158.312 38.2656 158.742 36.1875 159.602 34.3438C160.477 32.5 161.648 30.8828 163.117 29.4922C164.586 28.1016 166.227 26.9219 168.039 25.9531C169.867 24.9844 171.734 24.2109 173.641 23.6328C172.719 23.2422 171.906 22.9141 171.203 22.6484C170.5 22.3672 169.906 22.1562 169.422 22.0156C168.953 21.8594 168.578 21.7812 168.297 21.7812C167.469 21.7812 166.719 22.0469 166.047 22.5781C165.375 23.0938 164.836 23.6172 164.43 24.1484L163.07 25.8594L157.516 23.1406L158.688 21.2188C159.797 19.3906 161.148 17.8594 162.742 16.625C164.336 15.3906 166.195 14.7734 168.32 14.7734C169.211 14.7734 170.242 14.9766 171.414 15.3828C172.586 15.7891 173.852 16.2969 175.211 16.9062C176.57 17.5156 177.969 18.125 179.406 18.7344C180.844 19.3438 182.266 19.8594 183.672 20.2812C185.078 20.6875 186.422 20.8984 187.703 20.9141ZM177.18 38.1172L180.859 41.7969L177.18 45.5L173.477 41.7969L177.18 38.1172ZM181.094 32.3984L184.797 36.1016L181.094 39.7812L177.414 36.1016L181.094 32.3984ZM173.289 32.3984L176.969 36.1016L173.289 39.7812L169.586 36.1016L173.289 32.3984Z" fill="white"/>
</svg>
