<svg width="64" height="64" viewBox="0 0 64 64" fill="none" xmlns="http://www.w3.org/2000/svg">
<g clip-path="url(#clip0_12_53)">
<path d="M24 32C27.1645 32 30.2579 31.0616 32.8891 29.3035C35.5203 27.5454 37.5711 25.0466 38.7821 22.1229C39.9931 19.1993 40.3099 15.9823 39.6926 12.8786C39.0752 9.77487 37.5514 6.92394 35.3137 4.6863C33.0761 2.44866 30.2251 0.924806 27.1214 0.307443C24.0178 -0.309921 20.8007 0.00693258 17.8771 1.21793C14.9534 2.42894 12.4546 4.4797 10.6965 7.11088C8.93838 9.74207 8 12.8355 8 16C8.00424 20.2422 9.69131 24.3094 12.691 27.309C15.6906 30.3087 19.7578 31.9958 24 32ZM24 5.33334C26.1097 5.33334 28.172 5.95893 29.9261 7.131C31.6802 8.30307 33.0474 9.96897 33.8547 11.9181C34.6621 13.8671 34.8733 16.0118 34.4617 18.081C34.0501 20.1501 33.0342 22.0507 31.5425 23.5425C30.0507 25.0342 28.1501 26.0501 26.081 26.4617C24.0118 26.8733 21.8671 26.6621 19.918 25.8547C17.969 25.0474 16.3031 23.6802 15.131 21.9261C13.9589 20.172 13.3333 18.1097 13.3333 16C13.3333 13.171 14.4571 10.4579 16.4575 8.45754C18.4579 6.45715 21.171 5.33334 24 5.33334V5.33334ZM48 61.3333C48 62.0406 47.7191 62.7189 47.219 63.219C46.7189 63.7191 46.0406 64 45.3333 64C44.6261 64 43.9478 63.7191 43.4477 63.219C42.9476 62.7189 42.6667 62.0406 42.6667 61.3333C42.6667 56.3826 40.7 51.6347 37.1993 48.134C33.6987 44.6333 28.9507 42.6667 24 42.6667C19.0493 42.6667 14.3014 44.6333 10.8007 48.134C7.3 51.6347 5.33333 56.3826 5.33333 61.3333C5.33333 62.0406 5.05238 62.7189 4.55229 63.219C4.05219 63.7191 3.37391 64 2.66667 64C1.95942 64 1.28115 63.7191 0.781049 63.219C0.280952 62.7189 0 62.0406 0 61.3333C0 54.9681 2.52856 48.8637 7.02944 44.3628C11.5303 39.8619 17.6348 37.3333 24 37.3333C30.3652 37.3333 36.4697 39.8619 40.9706 44.3628C45.4714 48.8637 48 54.9681 48 61.3333V61.3333ZM63.2187 38.1147C63.4734 38.3607 63.6765 38.6549 63.8163 38.9803C63.956 39.3056 64.0296 39.6555 64.0327 40.0096C64.0358 40.3637 63.9683 40.7148 63.8342 41.0426C63.7001 41.3703 63.5021 41.668 63.2517 41.9184C63.0013 42.1688 62.7036 42.3668 62.3759 42.5009C62.0482 42.6349 61.697 42.7024 61.3429 42.6993C60.9889 42.6963 60.6389 42.6227 60.3136 42.4829C59.9883 42.3432 59.694 42.14 59.448 41.8853L54.6667 37.104L49.8853 41.8853C49.3824 42.3711 48.7088 42.6399 48.0096 42.6338C47.3104 42.6277 46.6416 42.3473 46.1472 41.8529C45.6527 41.3584 45.3723 40.6896 45.3662 39.9904C45.3601 39.2912 45.6289 38.6176 46.1147 38.1147L50.896 33.3333L46.1147 28.552C45.6289 28.0491 45.3601 27.3755 45.3662 26.6763C45.3723 25.9771 45.6527 25.3082 46.1472 24.8138C46.6416 24.3194 47.3104 24.039 48.0096 24.0329C48.7088 24.0268 49.3824 24.2956 49.8853 24.7813L54.6667 29.5627L59.448 24.7813C59.9509 24.2956 60.6246 24.0268 61.3237 24.0329C62.0229 24.039 62.6918 24.3194 63.1862 24.8138C63.6806 25.3082 63.9611 25.9771 63.9671 26.6763C63.9732 27.3755 63.7044 28.0491 63.2187 28.552L58.4373 33.3333L63.2187 38.1147Z" fill="#8D97AF"/>
</g>
<defs>
<clipPath id="clip0_12_53">
<rect width="64" height="64" fill="white"/>
</clipPath>
</defs>
</svg>
