<svg width="27" height="27" viewBox="0 0 27 27" fill="none" xmlns="http://www.w3.org/2000/svg">
<g clip-path="url(#clip0_5_130)">
<path d="M26.0114 10.2025L17.4783 1.66826C16.4222 0.615243 14.9916 0.0239258 13.5003 0.0239258C12.0089 0.0239258 10.5784 0.615243 9.52226 1.66826L0.989133 10.2025C0.674611 10.515 0.425249 10.8868 0.255501 11.2964C0.0857523 11.706 -0.00100506 12.1453 0.00025773 12.5886V23.6328C0.00025773 24.5279 0.355837 25.3863 0.988772 26.0192C1.62171 26.6522 2.48015 27.0078 3.37526 27.0078H23.6253C24.5204 27.0078 25.3788 26.6522 26.0117 26.0192C26.6447 25.3863 27.0003 24.5279 27.0003 23.6328V12.5886C27.0015 12.1453 26.9148 11.706 26.745 11.2964C26.5753 10.8868 26.3259 10.515 26.0114 10.2025V10.2025ZM16.8753 24.7578H10.1253V20.332C10.1253 19.4369 10.4808 18.5785 11.1138 17.9455C11.7467 17.3126 12.6052 16.957 13.5003 16.957C14.3954 16.957 15.2538 17.3126 15.8867 17.9455C16.5197 18.5785 16.8753 19.4369 16.8753 20.332V24.7578ZM24.7503 23.6328C24.7503 23.9311 24.6317 24.2173 24.4208 24.4283C24.2098 24.6392 23.9236 24.7578 23.6253 24.7578H19.1253V20.332C19.1253 18.8402 18.5326 17.4094 17.4777 16.3545C16.4228 15.2996 14.9921 14.707 13.5003 14.707C12.0084 14.707 10.5777 15.2996 9.52278 16.3545C8.46789 17.4094 7.87526 18.8402 7.87526 20.332V24.7578H3.37526C3.07689 24.7578 2.79074 24.6392 2.57976 24.4283C2.36878 24.2173 2.25026 23.9311 2.25026 23.6328V12.5886C2.2513 12.2905 2.36972 12.0047 2.57988 11.7933L11.113 3.26238C11.7472 2.63118 12.6055 2.27682 13.5003 2.27682C14.395 2.27682 15.2533 2.63118 15.8875 3.26238L24.4206 11.7966C24.63 12.0073 24.7483 12.2917 24.7503 12.5886V23.6328Z" fill="#8D97AF"/>
</g>
<defs>
<clipPath id="clip0_5_130">
<rect width="27" height="27" fill="white"/>
</clipPath>
</defs>
</svg>
