<svg width="64" height="64" viewBox="0 0 64 64" fill="none" xmlns="http://www.w3.org/2000/svg">
<g clip-path="url(#clip0_27_25)">
<path d="M37.1524 10.6667C39.3216 10.6688 41.4013 11.5314 42.9351 13.0653C44.469 14.5991 45.3316 16.6788 45.3337 18.848C45.3337 19.5552 45.6147 20.2335 46.1148 20.7336C46.6149 21.2337 47.2932 21.5147 48.0004 21.5147C48.7076 21.5147 49.3859 21.2337 49.886 20.7336C50.3861 20.2335 50.6671 19.5552 50.6671 18.848V18.6667C50.6671 18.616 50.6671 18.5707 50.6671 18.52C50.5781 14.9939 49.1154 11.6421 46.5909 9.17881C44.0664 6.71555 40.6796 5.33569 37.1524 5.33333H34.6671V2.66667C34.6671 1.95942 34.3861 1.28115 33.886 0.781049C33.3859 0.280952 32.7076 0 32.0004 0C31.2932 0 30.6149 0.280952 30.1148 0.781049C29.6147 1.28115 29.3337 1.95942 29.3337 2.66667V5.33333H26.8484C23.6413 5.33676 20.5398 6.48062 18.0985 8.56048C15.6572 10.6403 14.0351 13.5206 13.5221 16.6865C13.0092 19.8523 13.6388 23.0974 15.2985 25.8418C16.9582 28.5861 19.5398 30.6507 22.5817 31.6667L29.3337 33.92V53.3333H26.8484C24.6792 53.3312 22.5995 52.4686 21.0657 50.9347C19.5318 49.4009 18.6692 47.3212 18.6671 45.152C18.6671 44.4448 18.3861 43.7665 17.886 43.2664C17.3859 42.7663 16.7077 42.4853 16.0004 42.4853C15.2932 42.4853 14.6149 42.7663 14.1148 43.2664C13.6147 43.7665 13.3337 44.4448 13.3337 45.152V45.3333C13.3337 45.384 13.3337 45.4293 13.3337 45.48C13.4227 49.0061 14.8854 52.3579 17.4099 54.8212C19.9345 57.2845 23.3212 58.6643 26.8484 58.6667H29.3337V61.3333C29.3337 62.0406 29.6147 62.7189 30.1148 63.219C30.6149 63.7191 31.2932 64 32.0004 64C32.7076 64 33.3859 63.7191 33.886 63.219C34.3861 62.7189 34.6671 62.0406 34.6671 61.3333V58.6667H37.1524C40.3596 58.6632 43.461 57.5194 45.9023 55.4395C48.3436 53.3597 49.9657 50.4794 50.4787 47.3135C50.9916 44.1477 50.362 40.9026 48.7023 38.1582C47.0426 35.4139 44.4611 33.3493 41.4191 32.3333L34.6671 30.08V10.6667H37.1524ZM39.7391 37.3893C41.5829 38.003 43.148 39.2529 44.1543 40.9153C45.1606 42.5777 45.5424 44.544 45.2312 46.4622C44.92 48.3803 43.9362 50.1251 42.4559 51.3841C40.9757 52.6431 39.0956 53.3341 37.1524 53.3333H34.6671V35.6987L39.7391 37.3893ZM29.3337 28.3013L24.2671 26.6107C22.4237 25.9971 20.8588 24.7477 19.8525 23.0858C18.8462 21.424 18.4641 19.4583 18.7745 17.5405C19.085 15.6227 20.0679 13.8779 21.5472 12.6185C23.0264 11.3591 24.9056 10.6672 26.8484 10.6667H29.3337V28.3013Z" fill="#8D97AF"/>
</g>
<defs>
<clipPath id="clip0_27_25">
<rect width="64" height="64" fill="white"/>
</clipPath>
</defs>
</svg>
