<svg width="36" height="36" viewBox="0 0 36 36" fill="none" xmlns="http://www.w3.org/2000/svg">
<g clip-path="url(#clip0_5_136)">
<path d="M29.3025 4.68303L26.8185 2.19603C26.1235 1.4975 25.2969 0.943738 24.3864 0.566796C23.476 0.189854 22.4999 -0.00278399 21.5145 3.03982e-05H12C10.0116 0.00241218 8.10534 0.793353 6.69933 2.19936C5.29332 3.60537 4.50238 5.51164 4.5 7.50003V28.5C4.50238 30.4884 5.29332 32.3947 6.69933 33.8007C8.10534 35.2067 10.0116 35.9977 12 36H24C25.9884 35.9977 27.8947 35.2067 29.3007 33.8007C30.7067 32.3947 31.4976 30.4884 31.5 28.5V9.98553C31.5024 9.00031 31.3094 8.02438 30.9323 7.11422C30.5551 6.20406 30.0011 5.37772 29.3025 4.68303V4.68303ZM27.1815 6.80403C27.3943 7.01601 27.5848 7.24923 27.75 7.50003H24V3.75003C24.2504 3.91701 24.484 4.10791 24.6975 4.32003L27.1815 6.80403ZM28.5 28.5C28.5 29.6935 28.0259 30.8381 27.182 31.682C26.3381 32.5259 25.1935 33 24 33H12C10.8065 33 9.66193 32.5259 8.81802 31.682C7.97411 30.8381 7.5 29.6935 7.5 28.5V7.50003C7.5 6.30656 7.97411 5.16196 8.81802 4.31805C9.66193 3.47414 10.8065 3.00003 12 3.00003H21V7.50003C21 8.29568 21.3161 9.05874 21.8787 9.62135C22.4413 10.184 23.2044 10.5 24 10.5H28.5V28.5ZM24 13.5C24.3978 13.5 24.7794 13.6581 25.0607 13.9394C25.342 14.2207 25.5 14.6022 25.5 15C25.5 15.3979 25.342 15.7794 25.0607 16.0607C24.7794 16.342 24.3978 16.5 24 16.5H12C11.6022 16.5 11.2206 16.342 10.9393 16.0607C10.658 15.7794 10.5 15.3979 10.5 15C10.5 14.6022 10.658 14.2207 10.9393 13.9394C11.2206 13.6581 11.6022 13.5 12 13.5H24ZM25.5 21C25.5 21.3979 25.342 21.7794 25.0607 22.0607C24.7794 22.342 24.3978 22.5 24 22.5H12C11.6022 22.5 11.2206 22.342 10.9393 22.0607C10.658 21.7794 10.5 21.3979 10.5 21C10.5 20.6022 10.658 20.2207 10.9393 19.9394C11.2206 19.6581 11.6022 19.5 12 19.5H24C24.3978 19.5 24.7794 19.6581 25.0607 19.9394C25.342 20.2207 25.5 20.6022 25.5 21ZM25.212 26.1195C25.4452 26.4403 25.5418 26.8404 25.4808 27.2322C25.4198 27.6241 25.2061 27.9758 24.8865 28.2105C23.3667 29.2935 21.5667 29.9148 19.7025 30C18.6133 29.9948 17.5572 29.6251 16.7025 28.95C16.2105 28.6125 16.023 28.5 15.6525 28.5C14.6496 28.6552 13.7034 29.0653 12.9045 29.691C12.5876 29.9169 12.1954 30.0108 11.8105 29.9529C11.4257 29.895 11.0785 29.6898 10.8421 29.3806C10.6058 29.0715 10.4988 28.6826 10.5439 28.296C10.5889 27.9095 10.7824 27.5556 11.0835 27.309C12.4053 26.2829 13.9924 25.6554 15.6585 25.5C16.6577 25.516 17.6237 25.8614 18.4065 26.4825C18.7633 26.8035 19.2227 26.9869 19.7025 27C20.929 26.9081 22.1085 26.4891 23.118 25.7865C23.4399 25.5532 23.8413 25.4572 24.2339 25.5196C24.6266 25.5821 24.9784 25.7979 25.212 26.1195V26.1195Z" fill="#8D97AF"/>
</g>
<defs>
<clipPath id="clip0_5_136">
<rect width="36" height="36" fill="white"/>
</clipPath>
</defs>
</svg>
