<svg width="64" height="64" viewBox="0 0 64 64" fill="none" xmlns="http://www.w3.org/2000/svg">
<g clip-path="url(#clip0_12_23)">
<path d="M32 31.9999C35.1645 31.9999 38.2579 31.0615 40.8891 29.3034C43.5203 27.5453 45.5711 25.0464 46.7821 22.1228C47.9931 19.1992 48.3099 15.9821 47.6926 12.8784C47.0752 9.77474 45.5514 6.92382 43.3137 4.68618C41.0761 2.44854 38.2251 0.924684 35.1214 0.307321C32.0178 -0.310043 28.8007 0.00681051 25.8771 1.21781C22.9534 2.42881 20.4546 4.47957 18.6965 7.11076C16.9384 9.74195 16 12.8354 16 15.9999C16.0042 20.2421 17.6913 24.3093 20.691 27.3089C23.6906 30.3086 27.7578 31.9957 32 31.9999ZM32 5.33322C34.1097 5.33322 36.172 5.95881 37.9261 7.13088C39.6802 8.30294 41.0474 9.96885 41.8547 11.9179C42.6621 13.867 42.8733 16.0117 42.4617 18.0808C42.0501 20.15 41.0342 22.0506 39.5425 23.5424C38.0507 25.0341 36.1501 26.05 34.081 26.4616C32.0118 26.8732 29.8671 26.6619 27.918 25.8546C25.969 25.0473 24.3031 23.6801 23.131 21.926C21.9589 20.1718 21.3333 18.1096 21.3333 15.9999C21.3333 13.1709 22.4571 10.4578 24.4575 8.45741C26.4579 6.45702 29.171 5.33322 32 5.33322V5.33322Z" fill="#8D97AF"/>
<path d="M32 37.335C25.637 37.342 19.5366 39.8728 15.0372 44.3722C10.5379 48.8715 8.00704 54.9719 7.99998 61.335C7.99998 62.0422 8.28093 62.7205 8.78103 63.2206C9.28113 63.7207 9.9594 64.0016 10.6666 64.0016C11.3739 64.0016 12.0522 63.7207 12.5523 63.2206C13.0524 62.7205 13.3333 62.0422 13.3333 61.335C13.3333 56.3843 15.3 51.6363 18.8007 48.1356C22.3013 44.635 27.0493 42.6683 32 42.6683C36.9507 42.6683 41.6986 44.635 45.1993 48.1356C48.7 51.6363 50.6666 56.3843 50.6666 61.335C50.6666 62.0422 50.9476 62.7205 51.4477 63.2206C51.9478 63.7207 52.6261 64.0016 53.3333 64.0016C54.0406 64.0016 54.7188 63.7207 55.2189 63.2206C55.719 62.7205 56 62.0422 56 61.335C55.9929 54.9719 53.4621 48.8715 48.9628 44.3722C44.4634 39.8728 38.363 37.342 32 37.335V37.335Z" fill="#8D97AF"/>
</g>
<defs>
<clipPath id="clip0_12_23">
<rect width="64" height="64" fill="white"/>
</clipPath>
</defs>
</svg>
