<svg width="27" height="27" viewBox="0 0 27 27" fill="none" xmlns="http://www.w3.org/2000/svg">
<g clip-path="url(#clip0_5_160)">
<path d="M26.8153 9.89363C26.5852 9.16114 26.1254 8.52215 25.504 8.07116C24.8827 7.62017 24.1327 7.38113 23.3649 7.38938H18.4498L16.9569 2.73638C16.7222 2.00395 16.2608 1.36502 15.6395 0.911699C15.0182 0.458382 14.2689 0.214111 13.4998 0.214111C12.7307 0.214111 11.9814 0.458382 11.3601 0.911699C10.7387 1.36502 10.2774 2.00395 10.0427 2.73638L8.54979 7.38938H3.63466C2.86938 7.39047 2.12401 7.63337 1.50502 8.08339C0.886029 8.53342 0.425086 9.16754 0.188026 9.89519C-0.0490329 10.6228 -0.0500822 11.4068 0.185028 12.1351C0.420139 12.8633 0.879383 13.4987 1.49716 13.9504L5.49766 16.8754L3.97666 21.5858C3.73087 22.3163 3.72775 23.1068 3.96779 23.8392C4.20782 24.5717 4.67815 25.207 5.30866 25.6504C5.92837 26.108 6.67936 26.3532 7.44971 26.3493C8.22007 26.3455 8.96856 26.0928 9.58366 25.629L13.4998 22.7468L17.417 25.6256C18.0356 26.0806 18.7826 26.3278 19.5505 26.3315C20.3184 26.3353 21.0677 26.0954 21.6907 25.6465C22.3136 25.1975 22.7782 24.5626 23.0176 23.8329C23.257 23.1033 23.2589 22.3165 23.0229 21.5858L21.5019 16.8754L25.5069 13.9504C26.1318 13.5044 26.5964 12.869 26.832 12.1384C27.0677 11.4078 27.0618 10.6207 26.8153 9.89363ZM24.1794 12.1335L19.5174 15.5411C19.3259 15.6808 19.1835 15.8774 19.1103 16.1029C19.0372 16.3283 19.0371 16.5711 19.1102 16.7966L20.882 22.2754C20.9717 22.5533 20.9709 22.8524 20.8799 23.1298C20.7888 23.4073 20.6121 23.6486 20.3751 23.8193C20.1382 23.99 19.8533 24.0811 19.5613 24.0796C19.2693 24.0781 18.9853 23.9841 18.7502 23.811L14.1658 20.436C13.9727 20.2942 13.7394 20.2177 13.4998 20.2177C13.2602 20.2177 13.0269 20.2942 12.8338 20.436L8.24941 23.811C8.01438 23.9864 7.72959 24.0824 7.43634 24.0851C7.14308 24.0877 6.8566 23.9969 6.61842 23.8258C6.38025 23.6547 6.20276 23.4122 6.11169 23.1334C6.02061 22.8546 6.02069 22.5541 6.11191 22.2754L7.88941 16.7966C7.96245 16.5711 7.96239 16.3283 7.88926 16.1029C7.81613 15.8774 7.67365 15.6808 7.48216 15.5411L2.82016 12.1335C2.58538 11.9616 2.41093 11.7199 2.32172 11.4429C2.23252 11.1659 2.23313 10.8678 2.32346 10.5912C2.41379 10.3146 2.58923 10.0736 2.82471 9.90269C3.06019 9.73174 3.34368 9.63958 3.63466 9.63938H9.37216C9.61034 9.63937 9.84238 9.56377 10.0348 9.42346C10.2273 9.28315 10.3703 9.08538 10.4432 8.85863L12.1869 3.42375C12.2764 3.14563 12.4519 2.90309 12.688 2.73103C12.9241 2.55897 13.2088 2.46627 13.5009 2.46627C13.7931 2.46627 14.0777 2.55897 14.3138 2.73103C14.55 2.90309 14.7254 3.14563 14.8149 3.42375L16.5587 8.85863C16.6315 9.08538 16.7745 9.28315 16.967 9.42346C17.1595 9.56377 17.3915 9.63937 17.6297 9.63938H23.3672C23.6582 9.63958 23.9416 9.73174 24.1771 9.90269C24.4126 10.0736 24.588 10.3146 24.6784 10.5912C24.7687 10.8678 24.7693 11.1659 24.6801 11.4429C24.5909 11.7199 24.4164 11.9616 24.1817 12.1335H24.1794Z" fill="#8D97AF"/>
</g>
<defs>
<clipPath id="clip0_5_160">
<rect width="27" height="27" fill="white"/>
</clipPath>
</defs>
</svg>
