<svg width="27" height="27" viewBox="0 0 27 27" fill="none" xmlns="http://www.w3.org/2000/svg">
<g clip-path="url(#clip0_5_180)">
<path d="M10.125 26.9992H1.125C0.826631 26.9992 0.540483 26.8807 0.329505 26.6697C0.118526 26.4588 0 26.1726 0 25.8743C0 25.5759 0.118526 25.2897 0.329505 25.0788C0.540483 24.8678 0.826631 24.7493 1.125 24.7493H10.125C10.4234 24.7493 10.7095 24.8678 10.9205 25.0788C11.1315 25.2897 11.25 25.5759 11.25 25.8743C11.25 26.1726 11.1315 26.4588 10.9205 26.6697C10.7095 26.8807 10.4234 26.9992 10.125 26.9992Z" fill="#8D97AF"/>
<path d="M7.875 22.5H1.125C0.826631 22.5 0.540483 22.3815 0.329505 22.1705C0.118526 21.9595 0 21.6734 0 21.375C0 21.0766 0.118526 20.7905 0.329505 20.5795C0.540483 20.3685 0.826631 20.25 1.125 20.25H7.875C8.17337 20.25 8.45952 20.3685 8.67049 20.5795C8.88147 20.7905 9 21.0766 9 21.375C9 21.6734 8.88147 21.9595 8.67049 22.1705C8.45952 22.3815 8.17337 22.5 7.875 22.5Z" fill="#8D97AF"/>
<path d="M5.625 18.0007H1.125C0.826631 18.0007 0.540483 17.8822 0.329505 17.6712C0.118526 17.4603 0 17.1741 0 16.8757C0 16.5774 0.118526 16.2912 0.329505 16.0802C0.540483 15.8693 0.826631 15.7507 1.125 15.7507H5.625C5.92337 15.7507 6.20952 15.8693 6.42049 16.0802C6.63147 16.2912 6.75 16.5774 6.75 16.8757C6.75 17.1741 6.63147 17.4603 6.42049 17.6712C6.20952 17.8822 5.92337 18.0007 5.625 18.0007Z" fill="#8D97AF"/>
<path d="M14.6252 26.9489C14.3268 26.9621 14.0354 26.8563 13.8151 26.6548C13.5947 26.4532 13.4634 26.1723 13.4501 25.8739C13.4369 25.5756 13.5427 25.2841 13.7443 25.0638C13.9458 24.8434 14.2267 24.7121 14.5251 24.6989C16.6541 24.5041 18.6835 23.7066 20.3757 22.4C22.0678 21.0934 23.3526 19.3316 24.0796 17.3211C24.8066 15.3106 24.9456 13.1346 24.4805 11.0479C24.0153 8.96121 22.9652 7.05026 21.4531 5.53888C19.941 4.0275 18.0296 2.97826 15.9427 2.51405C13.8558 2.04985 11.6798 2.1899 9.66967 2.91781C7.65949 3.64571 5.89835 4.93133 4.5925 6.62408C3.28665 8.31683 2.49017 10.3466 2.29635 12.4757C2.26949 12.7729 2.12569 13.0472 1.89657 13.2384C1.66744 13.4295 1.37177 13.5218 1.0746 13.495C0.777424 13.4681 0.503088 13.3243 0.311942 13.0952C0.120795 12.8661 0.0284965 12.5704 0.0553496 12.2732C0.369099 8.81196 2.00565 5.60503 4.62434 3.32C7.24303 1.03497 10.6421 -0.152089 14.114 0.00591424C17.5858 0.163918 20.863 1.65481 23.2633 4.16825C25.6636 6.68169 27.0021 10.024 27.0002 13.4995C27.0174 16.8726 25.7643 20.1286 23.4901 22.6199C21.2159 25.1111 18.0872 26.655 14.7265 26.9444C14.6927 26.9477 14.6578 26.9489 14.6252 26.9489V26.9489Z" fill="#8D97AF"/>
<path d="M13.5002 6.75C13.2018 6.75 12.9157 6.86853 12.7047 7.07951C12.4937 7.29048 12.3752 7.57663 12.3752 7.875V13.5C12.3752 13.7983 12.4938 14.0844 12.7048 14.2954L16.0798 17.6704C16.292 17.8753 16.5762 17.9887 16.8711 17.9861C17.1661 17.9836 17.4483 17.8653 17.6569 17.6567C17.8654 17.4481 17.9838 17.1659 17.9863 16.871C17.9889 16.576 17.8755 16.2918 17.6706 16.0796L14.6252 13.0343V7.875C14.6252 7.57663 14.5067 7.29048 14.2957 7.07951C14.0847 6.86853 13.7986 6.75 13.5002 6.75V6.75Z" fill="#8D97AF"/>
</g>
<defs>
<clipPath id="clip0_5_180">
<rect width="27" height="27" fill="white"/>
</clipPath>
</defs>
</svg>
